# xmcd
#
# Track frame offsets: 
#        150
#        76500
#        107300
#        145650
#        169275
#        208180
#        266300
#
# Disc length: 3892 seconds
#
# Revision: 0
# Processed by: cddbd v1.5.2PL0 Copyright (c) Steve Scherf et al.
# Submitted via: ExactAudioCopy v1.1
#
DISCID=4f0f3207
DTITLE=Robert Wittinger - Musik unserer Zeit
DYEAR=1991
DGENRE=Avantgarde
TTITLE0=Violinkonzert Op.43
TTITLE1=Streichtrio Op.38 I-Allegro introduzione
TTITLE2=Streichtrio Op.38 II-Lento fugato
TTITLE3=Streichtrio Op.38 III-Rondo finale
TTITLE4=Violinsonate Op.46  I-Allegro energico
TTITLE5=Violinsonate Op.46 II-Adagio lamentoso
TTITLE6=Violinsonate Op.46 III-Rondo finale
EXTD=
EXTT0=
EXTT1=
EXTT2=
EXTT3=
EXTT4=
EXTT5=
EXTT6=
PLAYORDER=
